<svg width="20" height="20" viewBox="0 0 20 20" fill="none" xmlns="http://www.w3.org/2000/svg">
<g clip-path="url(#clip0_16_19)">
<path fill-rule="evenodd" clip-rule="evenodd" d="M8.33333 0.625C12.5875 0.625 16.0417 4.07917 16.0417 8.33333C16.0417 12.5875 12.5875 16.0417 8.33333 16.0417C4.07917 16.0417 0.625 12.5875 0.625 8.33333C0.625 4.07917 4.07917 0.625 8.33333 0.625ZM8.33333 1.875C4.76917 1.875 1.875 4.76917 1.875 8.33333C1.875 11.8975 4.76917 14.7917 8.33333 14.7917C11.8975 14.7917 14.7917 11.8975 14.7917 8.33333C14.7917 4.76917 11.8975 1.875 8.33333 1.875Z" fill="#585858"/>
<path fill-rule="evenodd" clip-rule="evenodd" d="M8.33331 3.95831C7.98831 3.95831 7.70831 3.67831 7.70831 3.33331C7.70831 2.98831 7.98831 2.70831 8.33331 2.70831C10.2883 2.70831 12.0125 3.70831 13.0208 5.22415C13.2116 5.51081 13.1333 5.89915 12.8458 6.09081C12.5591 6.28165 12.1708 6.20331 11.9791 5.91581C11.195 4.73665 9.85415 3.95831 8.33331 3.95831Z" fill="#585858"/>
<path fill-rule="evenodd" clip-rule="evenodd" d="M12.8917 13.775C12.6475 13.5317 12.6475 13.135 12.8917 12.8917C13.135 12.6475 13.5317 12.6475 13.775 12.8917L19.1917 18.3083C19.4358 18.5517 19.4358 18.9483 19.1917 19.1917C18.9483 19.4358 18.5517 19.4358 18.3083 19.1917L12.8917 13.775Z" fill="#585858"/>
</g>
<defs>
<clipPath id="clip0_16_19">
<rect width="20" height="20" fill="white"/>
</clipPath>
</defs>
</svg>
